<?xml version="1.0" encoding="utf-8"?>
<!-- Generator: Adobe Illustrator 25.1.0, SVG Export Plug-In . SVG Version: 6.00 Build 0)  -->
<svg version="1.1" id="Layer_1" xmlns="http://www.w3.org/2000/svg" xmlns:xlink="http://www.w3.org/1999/xlink" x="0px" y="0px"
	 viewBox="0 0 1920 1080" style="enable-background:new 0 0 1920 1080;" xml:space="preserve">
<style type="text/css">
	.st0{fill:#3B82F6;}
	.st1{fill:#3F3D56;}
	.st2{fill:#FFFFFF;}
	.st3{fill:#CCCCCC;}
	.st4{fill:#E6E6E6;}
</style>
<g>
	<g transform="translate(408.69289159104324 313.06138713842495)">
		<path class="st0" d="M1009.5,256.6c-1.5,147.2-54.7,293-154.4,379.8c-11.9,10.4-24.5,20-37.7,28.8c-6.5,4.3-13.1,8.5-19.9,12.4
			c-28.7,16.8-59.7,30.2-92.5,40.7l0,0l-364.5,26.6l0,0c-17.6-2.3-34.8-5.2-51.4-8.7c-9.6-2-19-4.3-28.1-6.8
			c-63.9-17.5-115.7-46.3-142.7-90.9c-52.6-87.1-11.1-233.7,8-361.3c19-127.6,15.6-236.1,68.2-340.2c17.2-34.2,40.5-67.8,68.6-98.4
			c27.2-29.7,58.9-56.4,93.9-77.7l0,0c38.8-23.7,81.7-40.7,127.1-47.9c81.8-12.7,171.7,6.7,251.9,49.3l0,0
			c21.9,11.6,43,24.9,63.1,39.8c22.1,16.4,43,34.7,62.1,54.6C960.7-39.3,1010.9,109.4,1009.5,256.6z"/>
	</g>
	<path class="st1" d="M1226,342V172.3c0-21.3-6.8-41-18.2-57c-14.7-20.6-37.2-35.3-63.1-39.8l0,0c-5.5-1-11.2-1.5-16.9-1.5H768.2
		c-0.7,0-1.5,0-2.2,0l0,0c-46.2,1-84.5,34-93.8,77.7c-1.4,6.6-2.2,13.5-2.2,20.5v870.4l28.1,6.8c16.6,3.5,33.8,6.4,51.4,8.7l0,0
		l364.2-26.6l0,0c32.7-10.6,63.8-24,92.4-40.7c6.8-4,13.4-8.1,19.9-12.4V463h6V342H1226z"/>
	<path class="st2" d="M1205,170.7v826.5c-29.2,17.1-60.7,30.7-94.1,41.3l0,0l-370.7,27l0,0c-17.9-2.3-35.4-5.3-52.3-8.8v-886
		c0-41.3,33.4-74.7,74.7-74.7h44.6c-1.7,4.3-2.6,8.8-2.6,13.4c0,19.6,15.9,35.4,35.5,35.4h209.7c4.6,0,9.2-0.9,13.4-2.6
		c18.1-7.4,26.8-28,19.4-46.2h47.7C1171.6,96.1,1205,129.5,1205,170.7z"/>
	<path class="st3" d="M875.6,915H643.5c-35.6,0-64.5-28.9-64.5-64.5v-388c0-35.6,28.9-64.5,64.5-64.5h232
		c35.6,0,64.5,28.9,64.5,64.5v387.9C940.1,886.1,911.2,915,875.6,915z"/>
	<path class="st4" d="M866.6,915H634.5c-35.6,0-64.5-28.9-64.5-64.5v-388c0-35.6,28.9-64.5,64.5-64.5h232
		c35.6,0,64.5,28.9,64.5,64.5v387.9C931.1,886.1,902.2,915,866.6,915z"/>
</g>
</svg>
