<?xml version="1.0" encoding="utf-8"?>
<!-- Generator: Adobe Illustrator 25.1.0, SVG Export Plug-In . SVG Version: 6.00 Build 0)  -->
<svg version="1.1" id="Layer_1" xmlns="http://www.w3.org/2000/svg" xmlns:xlink="http://www.w3.org/1999/xlink" x="0px" y="0px"
	 viewBox="0 0 1920 1080" style="enable-background:new 0 0 1920 1080;" xml:space="preserve">
<style type="text/css">
	.st0{fill:#3B82F6;}
	.st1{fill:#3F3D56;}
	.st2{fill:#FFFFFF;}
</style>
<g transform="translate(395.0765320279668 298.83095104277083)">
	<path class="st0" d="M1195.7,236.1c-4.9,175.7-126.2,345.9-271.9,439.8c-22.5,14.5-45.6,27.1-69.2,38.1c-6.9,3.2-13.9,6.3-20.9,9.3
		c-123.3,51.9-257.6,61.1-384.9,52c-42.4-3-84-8.1-123.5-15.6c-9.2-1.7-18.2-3.6-27.1-5.6c-97.3-22-180.1-60.5-229.1-123.6
		C-3.7,536.8-1.6,389.1-0.5,242.5c0.9-146.9,1.2-292.3,74-381.8c72.9-89.5,218.3-122.4,381.5-139.9c163.2-17.8,343.9-19.5,489.6,70
		C1090.3-120,1201,60.6,1195.7,236.1z"/>
</g>
<path class="st1" d="M1249.8,338.8V169c0-54.3-44-98.3-98.3-98.3H791.6c-54.3,0-98.3,44-98.3,98.3v883.8c8.9,2,18,3.9,27.1,5.6
	C760,1066,801.6,1071,844,1074c127.3,9.1,261.6-0.1,384.9-52c7-2.9,14-6,20.9-9.3v-553h6.2V338.8H1249.8z"/>
<path class="st2" d="M1229.8,173.7V1024c-123.3,51.9-257.6,61.1-384.9,52c-42.4-3-84-8.1-123.5-15.6V173.7
	c0-40.5,32.9-73.4,73.4-73.4h43.9c-1.7,4.2-2.6,8.7-2.6,13.2c0,19.3,15.6,34.9,34.9,34.9h206.2c4.5,0,9-0.9,13.2-2.6
	c17.8-7.3,26.4-27.6,19.1-45.5h47C1197,100.3,1229.8,133.2,1229.8,173.7z"/>
</svg>
